<svg width="48" height="37" viewBox="0 0 48 37" fill="none" xmlns="http://www.w3.org/2000/svg">
<path d="M5.59668 22.05C5.59668 23.1167 5.59668 24.0667 5.59668 24.9C5.59668 25.7 5.58001 26.4667 5.54668 27.2C5.54668 27.9333 5.53001 28.6667 5.49668 29.4C5.46335 30.1333 5.43001 30.95 5.39668 31.85C7.69668 31.5833 9.49668 31.3667 10.7967 31.2C12.0967 31.0333 13.1133 30.9 13.8467 30.8C14.6133 30.7 15.1967 30.6333 15.5967 30.6C16.03 30.5667 16.53 30.55 17.0967 30.55C18.5633 30.55 19.2967 31.2667 19.2967 32.7C19.2967 33.2667 18.9967 33.75 18.3967 34.15C17.83 34.55 17.0967 34.9 16.1967 35.2C15.33 35.4667 14.3467 35.7 13.2467 35.9C12.18 36.0667 11.13 36.1833 10.0967 36.25C9.09668 36.35 8.18001 36.4167 7.34668 36.45C6.54668 36.4833 5.98001 36.5 5.64668 36.5C4.44668 36.5 3.51335 36.4167 2.84668 36.25C2.18001 36.1167 1.68001 35.6833 1.34668 34.95C1.01335 34.1833 0.79668 33.0333 0.69668 31.5C0.630013 29.9667 0.59668 27.8 0.59668 25C0.59668 22.3 0.59668 19.9 0.59668 17.8C0.59668 15.7 0.613347 13.8167 0.64668 12.15C0.680013 10.4833 0.69668 9 0.69668 7.7C0.730013 6.4 0.780013 5.21667 0.84668 4.15C0.913346 2.78333 1.14668 1.9 1.54668 1.5C1.94668 1.06667 2.44668 0.85 3.04668 0.85C3.38001 0.85 3.66335 0.883332 3.89668 0.949998C4.16335 0.983331 4.39668 1.11666 4.59668 1.35C4.79668 1.58333 4.94668 1.91666 5.04668 2.35C5.18001 2.78333 5.26335 3.4 5.29668 4.2C5.43001 7.13333 5.51335 10.0333 5.54668 12.9C5.58001 15.7667 5.59668 18.8167 5.59668 22.05ZM32.4518 36C30.5851 36 29.0851 35.85 27.9518 35.55C26.8184 35.25 25.9351 34.8333 25.3018 34.3C24.7018 33.7333 24.2851 33.05 24.0518 32.25C23.8518 31.45 23.7018 30.55 23.6018 29.55C23.5018 28.3833 23.4184 26.85 23.3518 24.95C23.3184 23.0167 23.3018 21.0167 23.3018 18.95C23.3018 17.95 23.3018 16.9 23.3018 15.8C23.3351 14.6667 23.3518 13.5667 23.3518 12.5C23.3851 11.4 23.4184 10.3833 23.4518 9.45C23.4851 8.51667 23.5351 7.71667 23.6018 7.05C23.7018 6.01667 23.8684 5.08333 24.1018 4.25C24.3351 3.41666 24.7684 2.7 25.4018 2.1C26.0684 1.5 26.9851 1.05 28.1518 0.749998C29.3518 0.416665 30.9351 0.249998 32.9018 0.249998C37.3684 0.249998 40.7018 1.08333 42.9018 2.75C45.1351 4.38333 46.2518 6.71666 46.2518 9.75C46.2518 11.3167 45.9018 12.7667 45.2018 14.1C44.5351 15.4333 43.3684 16.4333 41.7018 17.1C42.6351 17.2667 43.4851 17.6167 44.2518 18.15C45.0184 18.6833 45.6684 19.3333 46.2018 20.1C46.7684 20.8333 47.1851 21.6667 47.4518 22.6C47.7518 23.5 47.9018 24.4167 47.9018 25.35C47.9018 26.55 47.6518 27.7833 47.1518 29.05C46.6518 30.2833 45.8018 31.4167 44.6018 32.45C43.4018 33.4833 41.8018 34.3333 39.8018 35C37.8351 35.6667 35.3851 36 32.4518 36ZM42.9018 25.2C42.9018 24 42.6184 23.0333 42.0518 22.3C41.5184 21.5667 40.8184 21.0167 39.9518 20.65C39.0851 20.25 38.1184 19.9833 37.0518 19.85C35.9851 19.7167 34.9184 19.65 33.8518 19.65C33.0184 19.65 32.1518 19.65 31.2518 19.65C30.3518 19.65 29.5184 19.6667 28.7518 19.7C28.7184 20.4 28.6851 21.1167 28.6518 21.85C28.6184 22.5833 28.5851 23.2833 28.5518 23.95C28.5518 24.5833 28.5518 25.15 28.5518 25.65C28.5518 26.1167 28.5518 26.45 28.5518 26.65C28.5518 27.55 28.6184 28.3 28.7518 28.9C28.8851 29.5 29.1351 29.9833 29.5018 30.35C29.8684 30.7167 30.3851 30.9833 31.0518 31.15C31.7518 31.2833 32.6351 31.35 33.7018 31.35C36.6351 31.35 38.9018 30.8333 40.5018 29.8C42.1018 28.7667 42.9018 27.2333 42.9018 25.2ZM33.6518 5C32.5518 5 31.6518 5.1 30.9518 5.3C30.2851 5.46667 29.7684 5.7 29.4018 6C29.0684 6.3 28.8351 6.66667 28.7018 7.1C28.6018 7.53333 28.5518 8 28.5518 8.5V15.5C29.0184 15.5333 29.5018 15.55 30.0018 15.55C30.5351 15.55 31.0351 15.55 31.5018 15.55C32.7018 15.55 33.8684 15.4667 35.0018 15.3C36.1684 15.1333 37.2184 14.85 38.1518 14.45C39.0851 14.05 39.8351 13.5 40.4018 12.8C40.9684 12.1 41.2518 11.2 41.2518 10.1C41.2518 8.6 40.6351 7.38333 39.4018 6.45C38.2018 5.48333 36.2851 5 33.6518 5Z" fill="#A5A5A5"/>
</svg>
